<?xml version="1.0" standalone="no"?>
<!DOCTYPE svg PUBLIC "-//W3C//DTD SVG 20010904//EN"
 "http://www.w3.org/TR/2001/REC-SVG-20010904/DTD/svg10.dtd">
<svg version="1.0" xmlns="http://www.w3.org/2000/svg"
 width="2000.000000pt" height="1242.000000pt" viewBox="0 0 2000.000000 1242.000000"
 preserveAspectRatio="xMidYMid meet">

<g transform="translate(0.000000,1242.000000) scale(0.100000,-0.100000)"
fill="#000000" stroke="none">
<path d="M5620 9600 l0 -2810 169 2 170 3 1412 1280 c776 704 1415 1280 1420
1280 5 0 185 -153 400 -340 216 -187 398 -340 405 -340 7 0 380 392 830 870
450 479 821 870 826 870 4 0 703 -778 1554 -1730 850 -952 1552 -1737 1560
-1745 12 -12 14 364 14 2728 l0 2742 -4380 0 -4380 0 0 -2810z m1553 1954
c143 -32 260 -103 354 -215 204 -242 196 -599 -18 -833 -116 -127 -266 -196
-439 -204 -130 -5 -212 12 -319 68 -359 187 -457 649 -204 962 149 184 399
273 626 222z"/>
<path d="M6895 11431 c-124 -35 -246 -128 -308 -234 -94 -161 -100 -359 -15
-521 44 -84 147 -185 228 -224 214 -105 446 -68 611 97 102 102 158 235 159
373 0 237 -166 453 -395 513 -77 20 -204 18 -280 -4z"/>
<path d="M10430 9390 c-448 -478 -818 -869 -822 -870 -3 0 -187 158 -409 350
-221 193 -406 349 -411 348 -5 -2 -608 -548 -1340 -1213 l-1331 -1210 2056 -3
c1130 -1 2983 -1 4117 0 l2061 3 -1545 1730 c-850 951 -1549 1731 -1553 1732
-4 1 -375 -389 -823 -867z"/>
<path d="M18 3968 c-2 -1223 -2 -2613 0 -3091 l3 -867 9979 0 9979 0 3 867 c2
478 2 1868 0 3091 l-3 2222 -9979 0 -9979 0 -3 -2222z m19742 82 l0 -1910
-9760 0 -9760 0 0 1910 0 1910 9760 0 9760 0 0 -1910z"/>
<path d="M9855 4990 c-153 -33 -226 -127 -247 -316 -6 -54 -13 -101 -15 -104
-3 -3 -46 -7 -96 -10 -80 -4 -92 -7 -95 -24 -6 -29 16 -36 111 -36 l87 0 0
-450 0 -450 -84 0 c-100 0 -116 -5 -116 -35 0 -13 7 -26 16 -29 20 -8 438 -8
458 0 21 8 21 50 0 58 -9 3 -58 6 -110 6 l-94 0 0 450 0 450 184 0 c150 0 186
3 196 15 7 8 10 22 6 30 -4 13 -33 15 -180 15 -96 0 -181 3 -190 6 -12 5 -16
21 -16 73 0 183 98 294 260 294 76 0 123 -18 198 -74 29 -22 60 -38 68 -35 44
17 -24 98 -118 141 -62 28 -158 39 -223 25z"/>
<path d="M1222 4971 c-8 -5 -12 -17 -10 -27 3 -16 14 -19 68 -21 36 -2 80 -5
98 -8 l32 -6 0 -654 0 -655 -84 0 c-46 0 -91 -3 -100 -6 -21 -8 -21 -50 0 -58
20 -8 418 -8 438 0 21 8 21 50 0 58 -9 3 -54 6 -100 6 l-84 0 0 654 0 654 23
6 c12 3 57 6 100 6 75 0 77 1 77 24 0 13 -7 27 -16 30 -24 9 -427 7 -442 -3z"/>
<path d="M7402 4971 c-8 -5 -12 -17 -10 -27 3 -16 14 -19 68 -21 36 -2 80 -5
98 -8 l32 -6 0 -654 0 -655 -84 0 c-46 0 -91 -3 -100 -6 -21 -8 -21 -50 0 -58
20 -8 418 -8 438 0 21 8 21 50 0 58 -9 3 -54 6 -100 6 l-84 0 0 654 0 654 23
6 c12 3 57 6 100 6 75 0 77 1 77 24 0 13 -7 27 -16 30 -24 9 -427 7 -442 -3z"/>
<path d="M12960 4961 c-6 -12 -10 -96 -10 -204 0 -214 11 -197 -122 -197 -76
0 -78 -1 -78 -24 0 -31 15 -36 116 -36 l84 0 0 -322 c0 -178 5 -352 11 -388
27 -166 115 -256 269 -275 79 -9 200 30 264 86 49 43 55 59 31 79 -12 10 -24
5 -68 -29 -67 -51 -123 -71 -199 -71 -106 0 -182 51 -218 147 -19 50 -20 78
-20 413 l0 360 194 0 c159 0 196 3 206 15 7 8 10 22 6 30 -4 13 -34 15 -190
15 -101 0 -191 3 -200 6 -14 5 -16 32 -16 191 0 183 -6 223 -35 223 -8 0 -19
-9 -25 -19z"/>
<path d="M14862 4963 c-18 -36 -4 -43 82 -43 50 0 89 -5 99 -12 16 -12 17 -61
15 -658 l-3 -645 -75 -3 c-41 -1 -85 -4 -96 -7 -29 -6 -37 -31 -18 -50 13 -12
49 -15 210 -15 194 0 234 6 234 35 0 23 -21 30 -105 35 l-80 5 0 310 0 310
440 0 440 0 0 -310 0 -310 -83 -5 c-59 -4 -86 -9 -92 -20 -27 -43 5 -50 220
-50 190 0 230 6 230 35 0 23 -21 30 -115 35 l-90 5 -3 645 c-2 597 -1 646 15
658 10 7 49 12 100 12 65 0 85 3 89 15 4 8 1 22 -6 30 -10 12 -48 15 -220 15
-217 0 -239 -4 -224 -44 5 -13 21 -16 78 -16 114 0 107 23 104 -320 l-3 -295
-440 0 -440 0 -3 295 c-3 343 -10 320 105 320 78 0 99 13 73 45 -10 12 -49 15
-221 15 -188 0 -209 -2 -217 -17z"/>
<path d="M17673 4973 c-7 -2 -13 -16 -13 -29 0 -23 2 -24 78 -24 42 0 87 -3
100 -6 l22 -6 0 -673 c0 -599 2 -675 16 -689 19 -20 19 -20 38 0 12 11 16 36
16 90 0 41 4 74 8 74 5 0 19 -12 33 -26 41 -45 135 -113 184 -134 74 -32 173
-43 256 -30 235 36 379 234 379 520 0 272 -125 440 -375 505 -43 11 -111 15
-256 15 -109 0 -204 3 -213 6 -14 5 -16 32 -16 191 0 108 -4 192 -10 204 -10
17 -22 19 -123 18 -62 0 -118 -3 -124 -6z m725 -488 c215 -51 332 -206 332
-440 0 -202 -80 -357 -222 -432 -49 -26 -62 -28 -163 -28 -103 0 -114 2 -175
31 -79 38 -139 89 -197 167 l-43 59 0 329 0 329 203 0 c143 0 220 -5 265 -15z"/>
<path d="M10422 4867 c-47 -50 -10 -137 58 -137 69 0 107 91 57 138 -32 30
-87 29 -115 -1z"/>
<path d="M12390 4870 c-49 -49 -10 -140 61 -140 37 0 79 42 79 80 0 15 -9 39
-21 54 -26 33 -88 37 -119 6z"/>
<path d="M2417 4579 c-72 -11 -133 -46 -213 -121 -39 -37 -76 -68 -82 -68 -7
0 -12 31 -14 83 l-3 82 -128 3 c-107 2 -128 0 -133 -13 -13 -33 15 -45 107
-45 84 0 89 -1 94 -22 3 -13 4 -214 3 -448 l-3 -425 -92 -5 c-99 -5 -126 -17
-107 -48 10 -15 34 -17 205 -20 225 -3 239 -1 239 33 0 29 -14 34 -110 37
l-65 3 -3 321 -2 320 32 50 c50 76 150 171 210 199 110 51 233 24 316 -70 73
-83 77 -110 77 -490 l0 -330 -80 -5 c-84 -5 -105 -12 -105 -35 0 -29 40 -35
224 -35 152 0 187 3 200 15 8 9 13 22 9 30 -7 19 -30 24 -113 27 l-65 3 -3
318 -2 318 27 46 c45 77 138 169 205 203 116 57 240 33 325 -64 75 -85 78
-105 78 -486 l0 -335 -65 -3 c-83 -3 -106 -8 -113 -27 -4 -8 1 -21 9 -30 13
-12 49 -15 210 -15 194 0 234 6 234 35 0 23 -21 30 -115 35 l-90 5 -5 350 c-5
327 -7 353 -27 402 -41 102 -114 177 -204 208 -52 19 -149 21 -207 6 -83 -23
-196 -117 -263 -221 l-16 -24 -28 62 c-31 69 -100 141 -161 167 -53 23 -129
32 -187 24z"/>
<path d="M4210 4579 c-41 -4 -102 -17 -135 -29 -81 -28 -165 -84 -165 -110 0
-32 25 -34 67 -6 21 14 67 38 103 53 60 25 76 27 195 28 145 0 176 -10 254
-81 59 -53 82 -117 79 -217 l-3 -82 -250 -5 c-228 -5 -255 -8 -306 -28 -178
-71 -258 -223 -203 -384 60 -176 333 -260 538 -165 60 28 165 106 184 136 7
12 19 21 27 21 12 0 15 -16 15 -80 0 -100 3 -102 146 -98 90 3 109 6 118 21
19 32 -16 47 -111 47 -77 0 -83 1 -88 23 -3 12 -6 180 -7 372 -3 343 -3 351
-26 393 -36 67 -88 119 -153 151 -53 27 -80 33 -179 45 -14 1 -59 -1 -100 -5z
m398 -624 l2 -110 -52 -70 c-64 -84 -159 -159 -230 -180 -67 -20 -200 -19
-267 1 -67 19 -141 90 -159 150 -42 142 33 265 187 306 55 14 105 17 291 15
l225 -2 3 -110z"/>
<path d="M5445 4583 c-163 -11 -287 -79 -350 -195 -56 -102 -45 -267 25 -369
16 -24 30 -47 30 -51 0 -4 -18 -17 -39 -28 -57 -28 -81 -64 -81 -118 0 -38 5
-49 38 -81 20 -20 46 -42 57 -48 20 -13 19 -13 -5 -30 -100 -71 -142 -146
-142 -249 1 -110 53 -193 154 -245 149 -76 494 -90 683 -27 92 30 161 81 198
147 26 45 30 64 31 125 0 122 -49 202 -156 257 -103 52 -159 60 -460 67 -260
7 -278 8 -305 28 -35 26 -43 76 -16 106 10 12 37 30 61 40 l43 19 63 -25 c132
-53 339 -54 475 -4 75 28 171 123 194 192 34 99 16 250 -38 330 -14 20 -25 43
-25 51 0 28 56 46 133 43 l72 -3 5 -115 c5 -115 5 -115 30 -115 l25 0 0 140 0
140 -105 3 c-122 3 -134 1 -184 -33 l-37 -25 -39 20 c-71 36 -221 60 -335 53z
m226 -77 c150 -35 229 -133 229 -286 0 -82 -25 -146 -79 -200 -73 -71 -123
-85 -316 -85 -156 0 -162 1 -223 29 -107 50 -162 138 -162 261 0 144 81 246
224 281 69 17 258 17 327 0z m77 -851 c161 -39 232 -111 232 -235 0 -161 -117
-236 -400 -255 -114 -8 -272 8 -357 36 -126 42 -182 110 -183 222 0 140 97
216 314 247 85 12 318 3 394 -15z"/>
<path d="M6686 4578 c-144 -14 -278 -111 -345 -251 -44 -89 -61 -168 -61 -277
0 -167 43 -287 140 -393 152 -166 438 -191 658 -58 87 53 114 77 110 97 -8 41
-32 37 -100 -14 -96 -72 -160 -94 -290 -100 -89 -3 -119 -1 -177 17 -132 40
-241 174 -271 334 -7 37 -10 74 -6 82 5 13 61 15 439 15 393 0 436 2 448 17
36 43 0 239 -60 327 -108 157 -273 226 -485 204z m247 -87 c76 -30 164 -111
207 -193 29 -54 34 -73 34 -133 l1 -70 -412 -3 c-469 -3 -432 -11 -413 89 28
147 143 279 283 325 65 21 227 13 300 -15z"/>
<path d="M8625 4578 c-82 -11 -174 -58 -249 -129 -35 -32 -68 -59 -74 -59 -7
0 -12 32 -14 83 l-3 82 -128 3 c-107 2 -128 0 -133 -13 -13 -32 15 -44 109
-47 l92 -3 0 -445 0 -445 -92 -5 c-99 -5 -126 -17 -107 -48 10 -15 34 -17 205
-20 225 -3 239 -1 239 33 0 29 -14 34 -110 37 l-65 3 -3 321 -2 320 31 47 c43
66 147 158 216 192 45 22 76 29 139 33 183 10 311 -78 343 -235 8 -40 11 -156
9 -368 l-3 -310 -65 -3 c-96 -3 -110 -8 -110 -37 0 -34 14 -36 239 -33 174 3
195 5 205 21 19 32 -16 47 -111 47 -77 0 -83 1 -88 23 -3 12 -6 171 -7 352 -3
317 -4 332 -26 386 -64 160 -231 243 -437 217z"/>
<path d="M11445 4578 c-82 -11 -174 -58 -249 -129 -35 -32 -68 -59 -74 -59 -7
0 -12 32 -14 83 l-3 82 -128 3 c-107 2 -128 0 -133 -13 -13 -33 15 -45 107
-45 84 0 89 -1 94 -22 3 -13 4 -214 3 -448 l-3 -425 -92 -5 c-99 -5 -126 -17
-107 -48 10 -15 34 -17 205 -20 225 -3 239 -1 239 33 0 29 -14 34 -110 37
l-65 3 -3 321 -2 320 31 47 c43 66 147 158 216 192 45 22 76 29 139 33 183 10
311 -78 343 -235 8 -40 11 -156 9 -368 l-3 -310 -65 -3 c-96 -3 -110 -8 -110
-37 0 -34 14 -36 239 -33 174 3 195 5 205 21 19 32 -16 47 -111 47 -78 0 -83
1 -88 23 -3 12 -6 171 -8 352 -2 316 -3 332 -25 386 -64 160 -231 243 -437
217z"/>
<path d="M10256 4544 c-12 -33 12 -43 107 -46 l92 -3 0 -445 0 -445 -93 -5
c-67 -4 -95 -9 -102 -20 -27 -43 4 -50 230 -50 200 0 240 6 240 35 0 23 -21
30 -115 35 l-90 5 -5 475 -5 475 -126 3 c-110 2 -127 0 -133 -14z"/>
<path d="M12224 4545 c-13 -33 15 -45 106 -45 71 0 89 -3 94 -16 3 -9 6 -204
6 -434 0 -230 -3 -425 -6 -434 -5 -13 -23 -16 -88 -16 -94 0 -129 -15 -110
-47 10 -16 31 -18 215 -21 112 -1 214 0 227 3 15 4 22 13 22 30 0 29 -14 34
-120 37 l-75 3 -5 475 -5 475 -128 3 c-107 2 -128 0 -133 -13z"/>
<path d="M13542 4533 c3 -28 3 -28 91 -31 78 -2 89 -5 102 -26 35 -52 435
-917 435 -938 -1 -35 -71 -196 -114 -261 -44 -66 -74 -90 -135 -107 -77 -20
-160 3 -243 70 -40 31 -54 38 -64 29 -31 -25 -8 -63 72 -117 46 -32 149 -55
210 -49 112 12 189 80 262 237 28 58 139 335 247 615 109 281 201 518 206 528
8 14 24 17 92 17 90 0 111 8 105 36 -3 18 -17 19 -226 22 l-222 2 0 -24 c0
-31 15 -36 107 -36 73 0 75 -1 70 -23 -8 -31 -314 -818 -321 -825 -3 -3 -8 -3
-11 0 -14 13 -402 834 -398 841 2 4 39 7 82 7 82 0 110 13 97 45 -5 13 -38 15
-226 15 l-221 0 3 -27z"/>
<path d="M16357 4554 c-13 -13 -7 -42 9 -48 9 -3 54 -6 100 -6 46 0 85 -1 86
-2 1 -2 4 -163 7 -358 l6 -355 28 -60 c59 -127 155 -189 323 -210 117 -15 253
37 359 137 35 33 69 57 75 53 5 -3 10 -39 10 -79 0 -43 5 -77 12 -84 15 -15
211 -16 239 -2 22 12 25 35 7 47 -7 4 -53 10 -103 13 l-90 5 -5 475 -5 475
-128 3 c-107 2 -128 0 -133 -13 -13 -32 15 -44 109 -47 l92 -3 3 -320 2 -319
-36 -53 c-51 -74 -142 -156 -211 -190 -53 -26 -67 -28 -168 -28 -100 0 -115 3
-160 27 -64 33 -108 80 -137 143 -22 49 -23 60 -28 425 l-5 375 -126 3 c-69 1
-128 -1 -132 -4z"/>
</g>
</svg>
